# xmcd
#
# Track frame offsets:
#	150
#	46461
#	67737
#	112565
#	151903
#	172452
#	213440
#	242876
#	272830
#	301872
#
# Disc length: 4341 seconds
#
# Revision: 2
# Processed by: cddbd v1.5.2PL0 Copyright (c) Steve Scherf et al.
# Submitted via: EZCDAudioConverter 4.0.3.1
#
DISCID=8310f30a
DTITLE=John Mayall - Howlin' At The Moon
DYEAR=1982
DGENRE=Blues
TTITLE0=Mexico City
TTITLE1=Gone From The Canyon
TTITLE2=Caught In The Middle
TTITLE3=John Lee Boogie
TTITLE4=Emergency Boogie
TTITLE5=Rolling With The Blues
TTITLE6=Howlin' Moon
TTITLE7=Room To Move
TTITLE8=Sitting Here Alone
TTITLE9=The Stumble
EXTD=
EXTT0=
EXTT1=
EXTT2=
EXTT3=
EXTT4=
EXTT5=
EXTT6=
EXTT7=
EXTT8=
EXTT9=
PLAYORDER=
